<?xml version="1.0" encoding="UTF-8" standalone="no"?>
<svg xmlns="http://www.w3.org/2000/svg" version="1.1" width="100" height="100" viewBox="0 0 100 100">
  <path fill="#000000" d="M 50 5 C 74.85 5 95 25.15 95 50 C 95 74.85 74.85 95 50 95 C 50 95 50 95 50 95 C 25.15 95 5 74.85 5 50 C 5 25.15 25.15 5 50 5 C 50 5 50 5 50 5 Z M 66.5 15 C 49.5 15 35.5 29 35.5 46 C 35.5 63 49.5 77 66.5 77 C 59.5 83.5 50.5 87 40.5 87 C 23.5 87 9.5 73 9.5 56 C 9.5 39 23.5 25 40.5 25 C 50.5 25 59.5 28.5 66.5 15 Z" />
</svg>