<svg width="26" height="25" viewBox="0 0 26 25" fill="none" xmlns="http://www.w3.org/2000/svg">
<path d="M12.9998 22.9167C12.7471 22.9167 12.5304 22.8473 12.3498 22.7084C12.1693 22.5695 12.0339 22.3872 11.9436 22.1615C11.6005 21.1893 11.1672 20.2778 10.6436 19.4271C10.138 18.5764 9.42484 17.5782 8.504 16.4323C7.58317 15.2865 6.83387 14.1927 6.25609 13.1511C5.69637 12.1094 5.4165 10.8507 5.4165 9.37504C5.4165 7.34379 6.14775 5.62504 7.61025 4.21879C9.09081 2.79518 10.8873 2.08337 12.9998 2.08337C15.1123 2.08337 16.8998 2.79518 18.3623 4.21879C19.8429 5.62504 20.5832 7.34379 20.5832 9.37504C20.5832 10.9549 20.2672 12.2743 19.6353 13.3334C19.0214 14.375 18.3082 15.408 17.4957 16.4323C16.5207 17.6823 15.7804 18.724 15.2748 19.5573C14.7873 20.3733 14.3811 21.2414 14.0561 22.1615C13.9658 22.4046 13.8214 22.5955 13.6228 22.7344C13.4422 22.8559 13.2346 22.9167 12.9998 22.9167ZM12.9998 11.9792C13.7582 11.9792 14.3991 11.7275 14.9228 11.224C15.4464 10.7205 15.7082 10.1042 15.7082 9.37504C15.7082 8.64587 15.4464 8.02955 14.9228 7.52608C14.3991 7.02261 13.7582 6.77087 12.9998 6.77087C12.2415 6.77087 11.6005 7.02261 11.0769 7.52608C10.5533 8.02955 10.2915 8.64587 10.2915 9.37504C10.2915 10.1042 10.5533 10.7205 11.0769 11.224C11.6005 11.7275 12.2415 11.9792 12.9998 11.9792Z" stroke="#E9F990"/>
</svg>
