<svg width="173" height="66" viewBox="0 0 173 66" fill="none" xmlns="http://www.w3.org/2000/svg">
<path d="M167.564 58.0351C166.365 58.0351 165.365 57.896 164.563 57.6179C163.771 57.3291 163.151 56.8798 162.702 56.27C162.252 55.6603 161.931 54.9435 161.739 54.1198C161.557 53.2854 161.466 52.2584 161.466 51.0389V42.7109H158.578L158.738 40.4323L161.755 40.1595L163.103 35.3777L165.67 35.3616V40.1595H170.051V42.7109H165.67V51.1191C165.67 52.4563 165.863 53.4084 166.248 53.9754C166.633 54.5424 167.344 54.8258 168.382 54.8258C168.992 54.8258 169.644 54.7724 170.34 54.6654L170.452 57.6821C170.431 57.6821 170.297 57.7088 170.051 57.7623C169.815 57.8051 169.585 57.8426 169.361 57.8746C169.147 57.9174 168.869 57.9549 168.526 57.987C168.184 58.0191 167.863 58.0351 167.564 58.0351Z" fill="#ECECEC"/>
<path d="M140.397 57.7944V33.6607L144.601 33.3879V38.4746C144.601 38.7207 144.585 39.4053 144.553 40.5286C144.521 41.6411 144.505 42.2081 144.505 42.2295C145.906 40.5607 147.789 39.7262 150.153 39.7262C152.121 39.7262 153.646 40.2932 154.726 41.4272C155.818 42.5504 156.363 44.2834 156.363 46.6262V57.7944H152.159V47.0915C152.159 45.6473 151.929 44.5883 151.469 43.9143C151.009 43.2404 150.228 42.9034 149.126 42.9034C148.185 42.9034 147.35 43.1441 146.623 43.6255C145.896 44.0962 145.35 44.706 144.986 45.4548C144.729 46.439 144.601 47.7227 144.601 49.3059V57.7944H140.397Z" fill="#ECECEC"/>
<path d="M123.581 65.6892L123.34 62.2874H125.474C127.945 62.2874 129.673 61.9558 130.657 61.2925C131.641 60.64 132.133 59.4365 132.133 57.6821C132.133 56.9654 132.101 56.1898 132.037 55.3554C131.759 55.7405 131.491 56.0614 131.235 56.3182C130.989 56.5642 130.673 56.8103 130.288 57.0563C129.913 57.3023 129.459 57.4896 128.924 57.6179C128.4 57.7356 127.801 57.7944 127.127 57.7944C124.795 57.7944 122.874 56.9547 121.366 55.2752C119.868 53.5956 119.12 51.4294 119.12 48.7764C119.12 47.3643 119.328 46.0806 119.745 44.9253C120.163 43.7592 120.73 42.8018 121.446 42.053C122.163 41.3041 122.987 40.7318 123.917 40.336C124.859 39.9295 125.859 39.7263 126.918 39.7263C129.282 39.7263 131.042 40.5874 132.197 42.3097L132.486 40.1595H136.241V56.5428C136.241 57.42 136.198 58.2063 136.113 58.9016C136.027 59.6077 135.877 60.2816 135.663 60.9235C135.449 61.576 135.166 62.143 134.813 62.6244C134.471 63.1058 134.037 63.5444 133.513 63.9402C132.989 64.336 132.369 64.6569 131.652 64.903C130.946 65.1597 130.122 65.3523 129.181 65.4806C128.239 65.6197 127.18 65.6892 126.004 65.6892H123.581ZM127.801 54.858C130.7 54.858 132.165 52.9163 132.197 49.0331V48.4234C132.176 46.6797 131.812 45.3318 131.106 44.3797C130.4 43.4276 129.368 42.9462 128.009 42.9355C126.469 42.9355 125.303 43.4651 124.511 44.5241C123.72 45.5725 123.324 46.9899 123.324 48.7764C123.324 50.4987 123.72 51.9429 124.511 53.1089C125.314 54.2749 126.41 54.858 127.801 54.858Z" fill="#ECECEC"/>
<path d="M111.449 57.7944V40.1595H115.653V57.7944H111.449ZM111.449 37.5921V33.9977H115.669V37.5921H111.449Z" fill="#ECECEC"/>
<path d="M91.231 57.7944V40.1595H94.6167L95.0821 42.3899C96.8793 40.6142 98.8744 39.7263 101.067 39.7263C103.121 39.7263 104.656 40.32 105.673 41.5074C106.7 42.6841 107.213 44.3957 107.213 46.6422V57.7944H102.993V47.1557C102.982 45.7329 102.752 44.6685 102.303 43.9625C101.854 43.2565 101.046 42.9034 99.8799 42.9034C98.9706 42.9034 98.1362 43.1388 97.3767 43.6095C96.6279 44.0695 96.0823 44.6525 95.74 45.3585C95.5367 46.1929 95.4351 47.4766 95.4351 49.2096V57.7944H91.231Z" fill="#ECECEC"/>
<path d="M170.484 27.753C169.525 27.753 168.725 27.6418 168.083 27.4193C167.45 27.1882 166.953 26.8288 166.594 26.341C166.235 25.8532 165.978 25.2798 165.824 24.6208C165.678 23.9533 165.606 23.1317 165.606 22.1561V15.4936H163.295L163.423 13.6708L165.837 13.4525L166.915 9.62709L168.969 9.61426V13.4525H172.473V15.4936H168.969V22.2203C168.969 23.29 169.123 24.0517 169.431 24.5053C169.739 24.9588 170.308 25.1856 171.138 25.1856C171.626 25.1856 172.148 25.1428 172.704 25.0573L172.794 27.4706C172.777 27.4706 172.67 27.492 172.473 27.5348C172.285 27.569 172.101 27.599 171.921 27.6247C171.75 27.6589 171.528 27.6889 171.254 27.7145C170.98 27.7402 170.723 27.753 170.484 27.753Z" fill="#ECECEC"/>
<path d="M153.911 27.83C152.602 27.83 151.541 27.4706 150.728 26.7517C149.923 26.0243 149.521 24.9802 149.521 23.6195C149.521 22.156 150 21.0734 150.959 20.3717C151.917 19.6614 153.364 19.2121 155.298 19.0238C155.563 18.9896 155.85 18.9553 156.158 18.9211C156.466 18.8869 156.812 18.8526 157.198 18.8184C157.583 18.7842 157.886 18.7542 158.109 18.7285V17.984C158.109 17.1282 157.912 16.5077 157.518 16.1226C157.125 15.7289 156.526 15.5321 155.721 15.5321C154.575 15.5321 153.158 15.853 151.472 16.4949C151.464 16.4692 151.322 16.0798 151.049 15.3267C150.775 14.5736 150.634 14.1885 150.625 14.1714C152.285 13.4611 154.082 13.1059 156.017 13.1059C157.916 13.1059 159.299 13.521 160.163 14.3511C161.027 15.1727 161.459 16.5077 161.459 18.3563V27.5604H158.969C158.961 27.5262 158.866 27.2395 158.687 26.7004C158.507 26.1612 158.417 25.8745 158.417 25.8403C157.715 26.5249 157.026 27.0298 156.35 27.355C155.683 27.6717 154.87 27.83 153.911 27.83ZM154.823 25.4423C155.601 25.4423 156.278 25.2583 156.851 24.8903C157.433 24.5138 157.848 24.0602 158.096 23.5296V20.8081C158.07 20.8081 157.844 20.8253 157.416 20.8595C156.996 20.8937 156.77 20.9108 156.735 20.9108C155.375 21.0306 154.378 21.2874 153.744 21.6811C153.111 22.0747 152.794 22.708 152.794 23.5809C152.794 24.18 152.97 24.6421 153.321 24.9674C153.672 25.284 154.172 25.4423 154.823 25.4423Z" fill="#ECECEC"/>
<path d="M138.545 27.753C137.587 27.753 136.787 27.6418 136.145 27.4193C135.511 27.1882 135.015 26.8288 134.656 26.341C134.296 25.8532 134.039 25.2798 133.885 24.6208C133.74 23.9533 133.667 23.1317 133.667 22.1561V15.4936H131.356L131.485 13.6708L133.898 13.4525L134.976 9.62709L137.03 9.61426V13.4525H140.535V15.4936H137.03V22.2203C137.03 23.29 137.184 24.0517 137.493 24.5053C137.801 24.9588 138.37 25.1856 139.2 25.1856C139.688 25.1856 140.21 25.1428 140.766 25.0573L140.856 27.4706C140.839 27.4706 140.732 27.492 140.535 27.5348C140.347 27.569 140.163 27.599 139.983 27.6247C139.812 27.6589 139.589 27.6889 139.315 27.7145C139.042 27.7402 138.785 27.753 138.545 27.753Z" fill="#ECECEC"/>
<path d="M124.758 27.8172C122.679 27.8172 121.014 27.462 119.765 26.7517L120.111 24.2228C120.676 24.5309 121.395 24.809 122.268 25.0572C123.141 25.2968 123.937 25.4166 124.656 25.4166C125.4 25.4166 125.978 25.2797 126.389 25.0059C126.808 24.7234 127.022 24.3127 127.03 23.7735C127.03 23.2857 126.834 22.9006 126.44 22.6182C126.055 22.3357 125.315 21.9849 124.219 21.5655C123.843 21.4286 123.599 21.3387 123.487 21.2959C122.187 20.791 121.249 20.2305 120.676 19.6143C120.103 18.9896 119.816 18.1466 119.816 17.0854C119.816 15.8017 120.278 14.8175 121.202 14.1329C122.135 13.4482 123.432 13.1059 125.092 13.1059C126.889 13.1059 128.468 13.4439 129.829 14.12L128.995 16.4435C127.651 15.8188 126.371 15.5064 125.156 15.5064C124.48 15.5064 123.95 15.622 123.564 15.853C123.188 16.0755 123 16.4179 123 16.88C123 17.3165 123.184 17.6588 123.552 17.907C123.92 18.1466 124.638 18.4632 125.708 18.8569C125.742 18.8655 125.854 18.904 126.042 18.9724C126.23 19.0409 126.376 19.0965 126.478 19.1393C127.771 19.61 128.721 20.1748 129.328 20.8338C129.936 21.4842 130.24 22.3357 130.24 23.3884C130.231 24.8005 129.752 25.8916 128.802 26.6618C127.852 27.4321 126.504 27.8172 124.758 27.8172Z" fill="#ECECEC"/>
<path d="M110.714 25.2754C111.853 25.2754 112.708 24.8604 113.282 24.0302C113.855 23.2001 114.142 22.0105 114.142 20.4615C114.142 18.8954 113.855 17.7016 113.282 16.88C112.708 16.0584 111.844 15.6476 110.689 15.6476C109.551 15.6476 108.69 16.0627 108.109 16.8928C107.535 17.7144 107.248 18.9083 107.248 20.4744C107.248 22.0148 107.539 23.2001 108.121 24.0302C108.703 24.8604 109.568 25.2754 110.714 25.2754ZM110.625 27.83C108.536 27.83 106.893 27.1539 105.695 25.8018C104.497 24.4496 103.898 22.6695 103.898 20.4615C103.898 18.1851 104.497 16.3922 105.695 15.0828C106.893 13.7649 108.583 13.1059 110.766 13.1059C112.871 13.1059 114.518 13.7777 115.708 15.1213C116.906 16.4564 117.505 18.2364 117.505 20.4615C117.505 22.7123 116.902 24.5052 115.695 25.8403C114.489 27.1668 112.798 27.83 110.625 27.83Z" fill="#ECECEC"/>
<path d="M91.125 27.5605V8.75415H94.6038V24.7877H102.473L102.37 27.5605H91.125Z" fill="#ECECEC"/>
<circle cx="26" cy="34" r="26" fill="#ECECEC"/>
<circle cx="36" cy="26" r="26" fill="#562952"/>
<circle cx="42" cy="21" r="17" fill="#ECECEC"/>
<circle cx="38" cy="26" r="17" fill="#562952"/>
</svg>
